<!-- The official "SRC" mark, traced from the club's own logo_src.svg export. Filled with
     --src-green (see packages/shared/styles/tokens.css) — a surface/logotype use, which is
     exempt from WCAG's text-contrast requirement, so the undiluted brand green is correct
     here even though it may not be used as text. A static file can't read a CSS custom
     property, so this hex must be kept in sync with --src-green by hand if that ever moves. -->
<svg xmlns="http://www.w3.org/2000/svg" viewBox="0 0 100 100" role="img" aria-label="Southville Running Club">
  <rect width="100" height="100" rx="18" fill="#4c9b58" />
  <g transform="translate(10 29.07) scale(.19370)">
    <path transform="translate(-814.522 -787.54)" fill="#fdfdfc" fill-rule="nonzero" d="M836.19 992.68a47.559 47.559 0 0 1-6.223-6.447c-10.297-12.87-15.445-32.67-15.445-59.4h49.897c0 5.94.049 10.148.148 12.623.099 2.475.396 5.494.891 9.058s1.237 5.99 2.227 7.277c.99 1.287 2.376 2.524 4.158 3.712 1.783 1.188 4.059 1.881 6.832 2.079 8.316 0 12.474-5.445 12.474-16.335 0-5.346-.892-9.603-2.673-12.771-1.782-3.168-3.96-5.643-6.535-7.425a457.165 457.165 0 0 0-16.334-10.395c-11.089-6.732-19.602-12.672-25.543-17.82-14.453-12.078-21.681-28.71-21.681-49.896 0-19.602 5.396-34.402 16.187-44.401 10.791-9.999 25.888-14.999 45.292-14.999 20.79 0 36.235 5.693 46.332 17.078 10.099 11.385 15.148 28.759 15.148 52.123h-49.897c0-9.504-.89-16.038-2.673-19.602-1.781-3.564-5.148-5.346-10.097-5.346-7.524 0-11.286 4.158-11.287 12.474.001 5.346 1.782 9.801 5.346 13.365 3.565 3.564 10.395 8.217 20.494 13.959l8.613 5.346c8.91 5.544 15.939 10.593 21.087 15.147 12.078 10.692 18.117 26.334 18.117 46.926 0 12.775-2.088 23.804-6.265 33.089-21.661.49-45.394 3.979-72.032 12.153a1445.033 1445.033 0 0 0-26.558 8.428ZM958.27 972.723V792.292h59.99c44.56 0 66.83 20.196 66.83 60.588 0 27.324-8.91 45.837-26.73 55.539l34.45 91.771h-13.59c-13.92-2.987-27.76-7.046-42-11.148l-21.33-60.724h-8.91v52.502c-15.282-3.735-31.344-6.791-48.71-8.097Zm78.11-113.012c0-14.058-6.24-21.087-18.71-21.087h-10.69v43.659h7.72c6.93 0 12.28-1.98 16.04-5.94 3.76-3.96 5.64-9.504 5.64-16.632ZM1142.55 1003.22c-8.34-2.12-15.31-5.707-20.93-10.75-9.11-8.514-15.34-20.196-18.71-35.046-3.37-14.85-5.05-35.145-5.05-60.885 0-25.344 1.58-45.342 4.75-59.994 7.13-32.67 27.82-49.005 62.07-49.005 22.18 0 38.02 6.386 47.53 19.157 9.5 12.771 14.25 32.917 14.25 60.439h-49.3c0-12.276-.89-21.037-2.67-26.284-1.79-5.247-5.55-7.871-11.29-7.871-7.13.792-11.63 4.703-13.51 11.732-1.88 7.029-2.82 21.334-2.82 42.916 0 20.394.29 35.343.89 44.847.59 9.702 1.93 16.632 4.01 20.79 2.08 4.158 5.49 6.237 10.24 6.237 6.34 0 10.45-3.168 12.33-9.504 1.88-6.336 2.82-16.929 2.82-31.779h49.6c0 23.368-3.12 41.928-9.35 55.679l-1.24.609a414.994 414.994 0 0 0-11.53 5.931c-2.53 1.351-5.03 2.748-7.56 4.081a211.793 211.793 0 0 1-9.98 4.925c-8.73 4.029-17.75 7.437-27.02 10.003a157.227 157.227 0 0 1-17.2 3.722l-.33.05Z" />
  </g>
</svg>
